<svg width="32" height="32" viewBox="0 0 32 32" fill="none" xmlns="http://www.w3.org/2000/svg">
<g id="Hotels/chat-review-like">
<g id="Group">
<path id="Path" fill-rule="evenodd" clip-rule="evenodd" d="M22.6715 10.7738V10.7738C23.0873 11.1897 23.321 11.7537 23.321 12.3418C23.321 12.93 23.0873 13.494 22.6715 13.9099L20.5466 16.0347C20.2215 16.3597 19.7807 16.5424 19.3209 16.5424C18.8612 16.5424 18.4204 16.3597 18.0953 16.0347L15.9705 13.9098C15.5546 13.494 15.321 12.9299 15.321 12.3418C15.321 11.7537 15.5546 11.1896 15.9705 10.7738V10.7738C16.8364 9.90779 18.2405 9.90779 19.1065 10.7738L19.3209 10.9882L19.5353 10.7738C19.9512 10.3579 20.5153 10.1242 21.1034 10.1242C21.6915 10.1242 22.2556 10.3579 22.6715 10.7738V10.7738Z" stroke="#FFB400" stroke-width="1.5" stroke-linecap="round" stroke-linejoin="round"/>
<path id="Path_2" fill-rule="evenodd" clip-rule="evenodd" d="M16.676 24H24C26.2091 24 28 22.2091 28 20V8C28 5.79086 26.2091 4 24 4H8C5.79086 4 4 5.79086 4 8V20C4 22.2091 5.79086 24 8 24H10.676V27.2572C10.676 27.5422 10.8394 27.802 11.0963 27.9255C11.3532 28.049 11.6581 28.0142 11.8807 27.8362L16.676 24Z" stroke="#FFB400" stroke-width="1.5" stroke-linecap="round" stroke-linejoin="round"/>
</g>
</g>
</svg>
