<svg width="24" height="24" viewBox="0 0 24 24" fill="none" xmlns="http://www.w3.org/2000/svg">
<g id="Settings-alt">
<path id="Vector" d="M12.002 15.15C11.1432 15.15 10.3195 14.8181 9.71217 14.2274C9.10486 13.6366 8.76368 12.8354 8.76368 12C8.76368 11.1646 9.10486 10.3634 9.71217 9.77261C10.3195 9.18187 11.1432 8.85 12.002 8.85C12.8609 8.85 13.6846 9.18187 14.2919 9.77261C14.8992 10.3634 15.2404 11.1646 15.2404 12C15.2404 12.8354 14.8992 13.6366 14.2919 14.2274C13.6846 14.8181 12.8609 15.15 12.002 15.15ZM18.8766 12.873C18.9136 12.585 18.9414 12.297 18.9414 12C18.9414 11.703 18.9136 11.406 18.8766 11.1L20.8289 9.633C21.0047 9.498 21.051 9.255 20.9399 9.057L19.0894 5.943C18.9784 5.745 18.7286 5.664 18.525 5.745L16.2212 6.645C15.74 6.294 15.2404 5.988 14.6575 5.763L14.3152 3.378C14.2782 3.162 14.0839 3 13.8525 3H10.1515C9.92024 3 9.72593 3.162 9.68892 3.378L9.34658 5.763C8.76368 5.988 8.26404 6.294 7.78291 6.645L5.47905 5.745C5.27549 5.664 5.02567 5.745 4.91464 5.943L3.06415 9.057C2.94387 9.255 2.99938 9.498 3.17518 9.633L5.12745 11.1C5.09044 11.406 5.06268 11.703 5.06268 12C5.06268 12.297 5.09044 12.585 5.12745 12.873L3.17518 14.367C2.99938 14.502 2.94387 14.745 3.06415 14.943L4.91464 18.057C5.02567 18.255 5.27549 18.327 5.47905 18.255L7.78291 17.346C8.26404 17.706 8.76368 18.012 9.34658 18.237L9.68892 20.622C9.72593 20.838 9.92024 21 10.1515 21H13.8525C14.0839 21 14.2782 20.838 14.3152 20.622L14.6575 18.237C15.2404 18.003 15.74 17.706 16.2212 17.346L18.525 18.255C18.7286 18.327 18.9784 18.255 19.0894 18.057L20.9399 14.943C21.051 14.745 21.0047 14.502 20.8289 14.367L18.8766 12.873Z" fill="#393939"/>
</g>
</svg>
